<svg width="100" height="100" viewBox="0 0 100 100" fill="none" xmlns="http://www.w3.org/2000/svg">
    <rect width="100" height="100" rx="20" fill="#1C1917" />
    <path
        d="M69.548 23.542C63.4707 23.542 58.454 25.5773 54.498 29.648V54.158H61.636C65.3627 54.158 67.226 54.416 67.226 54.932C67.226 55.5627 65.3627 55.878 61.636 55.878H54.498V69.38C54.498 74.0813 53.1793 77.8367 50.542 80.646C47.962 83.4553 44.6367 84.86 40.566 84.86C36.5527 84.86 33.514 83.57 31.45 80.99C29.386 78.3527 28.354 75.5147 28.354 72.476C28.354 69.4373 29.0707 67.2873 30.504 66.026C31.9947 64.7073 33.342 64.048 34.546 64.048C35.8073 64.048 36.868 64.306 37.728 64.822C38.588 65.338 39.018 65.9113 39.018 66.542C39.018 67.1727 38.8747 67.488 38.588 67.488C38.3013 67.488 37.9287 67.1727 37.47 66.542C37.0113 65.9113 36.094 65.596 34.718 65.596C33.342 65.596 32.224 66.2553 31.364 67.574C30.504 68.8353 30.074 70.6987 30.074 73.164C30.074 75.572 30.9913 77.8367 32.826 79.958C34.718 82.022 36.7247 83.054 38.846 83.054C40.9673 83.054 42.6587 82.1367 43.92 80.302C45.2387 78.41 45.898 75.8013 45.898 72.476V35.496C43.0313 37.044 40.4227 37.818 38.072 37.818C35.7213 37.818 33.7147 37.044 32.052 35.496C30.4467 33.8907 29.644 32.1133 29.644 30.164C29.644 28.1573 30.1313 26.5233 31.106 25.262C32.138 24.0007 33.6 23.37 35.492 23.37C37.384 23.37 38.8747 23.7713 39.964 24.574C41.0533 25.3767 41.598 26.208 41.598 27.068C41.598 27.8707 41.426 28.272 41.082 28.272C40.738 28.272 40.4227 28.014 40.136 27.498C39.104 25.8927 37.814 25.09 36.266 25.09C34.718 25.09 33.514 25.52 32.654 26.38C31.794 27.1827 31.364 28.4153 31.364 30.078C31.364 31.7407 31.966 33.174 33.17 34.378C34.374 35.5247 36.266 36.098 38.846 36.098C41.426 36.098 44.1493 35.066 47.016 33.002C49.94 30.938 52.4053 29.132 54.412 27.584C59.6867 23.3987 65.0187 21.306 70.408 21.306C74.1347 21.306 77.0013 22.424 79.008 24.66C81.0147 26.8387 82.018 29.476 82.018 32.572C82.018 35.6107 81.1293 37.99 79.352 39.71C77.5747 41.43 75.74 42.29 73.848 42.29C71.956 42.29 70.4653 41.7453 69.376 40.656C68.2867 39.5667 67.742 38.3913 67.742 37.13C67.742 35.8687 68.0287 34.8367 68.602 34.034C69.1753 33.2313 69.806 32.83 70.494 32.83C71.2393 32.83 71.612 33.0307 71.612 33.432C71.612 33.6613 71.44 33.862 71.096 34.034C70.0067 34.55 69.462 35.496 69.462 36.872C69.462 38.1907 69.9493 39.1367 70.924 39.71C71.8987 40.2833 73.0453 40.57 74.364 40.57C75.6827 40.57 77.0013 39.882 78.32 38.506C79.6387 37.13 80.298 35.152 80.298 32.572C80.298 29.9347 79.2373 27.7847 77.116 26.122C75.052 24.402 72.5293 23.542 69.548 23.542Z"
        fill="#FDBA74" />
    <style>
        <!-- path { fill: #000; }
        @media (prefers-color-scheme: dark) {
        path { fill: #FFF; }
        } -->
    </style>
</svg>